<svg id="Capa_1" enable-background="new 0 0 512 512" height="512" viewBox="0 0 512 512" width="512" xmlns="http://www.w3.org/2000/svg"><g><g><path d="m61.437 303.531h341.102c4.143 0 7.5-3.357 7.5-7.5s-3.357-7.5-7.5-7.5h-341.102c-4.143 0-7.5 3.357-7.5 7.5s3.357 7.5 7.5 7.5z"/><path d="m61.437 233.714h207.573c4.143 0 7.5-3.357 7.5-7.5s-3.357-7.5-7.5-7.5h-207.573c-4.143 0-7.5 3.357-7.5 7.5s3.357 7.5 7.5 7.5z"/><path d="m61.437 163.896h207.573c4.143 0 7.5-3.357 7.5-7.5s-3.357-7.5-7.5-7.5h-207.573c-4.143 0-7.5 3.357-7.5 7.5s3.357 7.5 7.5 7.5z"/><path d="m512 126.418c0-55.601-45.234-100.835-100.836-100.835-55.601 0-100.835 45.234-100.835 100.835 0 55.593 45.241 100.836 100.835 100.836 55.595 0 100.836-45.244 100.836-100.836zm-100.836-85.835c47.33 0 85.836 38.506 85.836 85.835 0 18.689-6.022 35.988-16.202 50.098-5.114-18.832-17.645-34.796-34.966-44.225 4.819-6.871 7.659-15.227 7.659-24.239 0-23.339-18.987-42.326-42.326-42.326s-42.326 18.987-42.326 42.326c0 9.012 2.84 17.368 7.659 24.239-17.322 9.428-29.853 25.392-34.966 44.224-10.18-14.11-16.202-31.409-16.202-50.098-.001-47.328 38.505-85.834 85.834-85.834zm-27.326 67.469c0-15.067 12.259-27.326 27.326-27.326s27.326 12.259 27.326 27.326-12.259 27.326-27.326 27.326-27.326-12.259-27.326-27.326zm-29.626 82.51c1.818-20.788 14.641-38.726 33.689-47.176 6.68 4.413 14.675 6.991 23.263 6.991 8.589 0 16.583-2.578 23.264-6.992 19.047 8.451 31.87 26.389 33.689 47.176-15.166 13.48-35.114 21.691-56.953 21.691-21.838.002-41.786-8.209-56.952-21.69z"/><path d="m463.687 232.821c-4.143 0-7.5 3.357-7.5 7.5v89.308c0 21.258-17.294 38.553-38.552 38.553h-190.371c-8.615 0-16.649 4.631-20.967 12.086l-51.095 88.215c-1.534 2.648-4.071 2.935-5.09 2.935-1.02 0-3.557-.286-5.09-2.934l-51.096-88.216c-4.317-7.455-12.352-12.086-20.967-12.086h-19.407c-21.258 0-38.552-17.295-38.552-38.553v-204.703c0-21.258 17.294-38.553 38.552-38.553h241.104c4.143 0 7.5-3.357 7.5-7.5s-3.357-7.5-7.5-7.5h-241.104c-29.529 0-53.552 24.023-53.552 53.553v204.703c0 29.529 24.023 53.553 53.552 53.553h19.408c3.282 0 6.342 1.764 7.986 4.604l51.096 88.217c3.778 6.521 10.533 10.415 18.07 10.415 7.536 0 14.291-3.894 18.069-10.416l51.096-88.216c1.645-2.84 4.704-4.604 7.986-4.604h190.371c29.528 0 53.552-24.023 53.552-53.553v-89.308c.001-4.142-3.357-7.5-7.499-7.5z"/></g></g></svg>