<svg xmlns="http://www.w3.org/2000/svg" width="152.535" height="341.694" viewBox="0 0 152.535 341.694">
  <g id="Layer_2" data-name="Layer 2" transform="translate(1 1)">
    <g id="Layer_1" data-name="Layer 1" transform="translate(0 0)">
      <path id="Path_169" data-name="Path 169" d="M31.5,279.88H59.3a.978.978,0,0,1,.978.978v13.7a.978.978,0,0,1-.978.978H31.5a.978.978,0,0,1-.978-.978v-13.7A.978.978,0,0,1,31.5,279.88Z" transform="translate(-16.08 -143.462)" fill="none" stroke="#aadaf1" stroke-linecap="round" stroke-linejoin="round" stroke-width="2"/>
      <path id="Path_170" data-name="Path 170" d="M61.978,247.82H89.763a.978.978,0,0,1,.978.978v13.7a.978.978,0,0,1-.978.978H61.978a.978.978,0,0,1-.978-.978V248.8A.978.978,0,0,1,61.978,247.82Z" transform="translate(-31.65 -127.085)" fill="none" stroke="#aadaf1" stroke-linecap="round" stroke-linejoin="round" stroke-width="2"/>
      <path id="Path_171" data-name="Path 171" d="M92.388,279.88h27.8a.978.978,0,0,1,.978.978v13.7a.978.978,0,0,1-.978.978h-27.8a.978.978,0,0,1-.978-.978v-13.7A.978.978,0,0,1,92.388,279.88Z" transform="translate(-47.185 -143.462)" fill="none" stroke="#aadaf1" stroke-linecap="round" stroke-linejoin="round" stroke-width="2"/>
      <path id="Path_172" data-name="Path 172" d="M1.978,312H29.8a.978.978,0,0,1,.978.978v13.7a.978.978,0,0,1-.978.978H1.978A.978.978,0,0,1,1,326.675v-13.7A.978.978,0,0,1,1.978,312Z" transform="translate(-1 -159.87)" fill="none" stroke="#aadaf1" stroke-linecap="round" stroke-linejoin="round" stroke-width="2"/>
      <path id="Path_173" data-name="Path 173" d="M112.82,635.61h14.474v14.22H112.82Z" transform="translate(-58.122 -325.182)" fill="#f77f89" fill-rule="evenodd"/>
      <path id="Path_174" data-name="Path 174" d="M224,634.77h14.479v14.215H224Z" transform="translate(-114.917 -324.753)" fill="#f77f89" fill-rule="evenodd"/>
      <path id="Path_175" data-name="Path 175" d="M58.23,70.416,67.847,68.4a2.558,2.558,0,0,1,3.033,1.957L74.837,88.7A2.519,2.519,0,0,1,72.88,91.69l-9.607,2.02a2.558,2.558,0,0,1-3.033-1.957L56.263,73.41a2.524,2.524,0,0,1,1.966-2.994Z" transform="translate(-29.203 -35.402)" fill="#9b9b9b" fill-rule="evenodd"/>
      <path id="Path_176" data-name="Path 176" d="M58.5,110.409c-1.184-1.874-10.1-19.283-7.337-20.76s4.3.064,4.98,1.663c1.467-1.56,4.5-3.424,5.748-2.064,1.467,1.56.249,4.055-.851,5.029,1.257-.44,2.416-.7,3.424.709,1.286,1.751-.367,6.765-1.247,7.518l4.647,4.4S59.674,112.263,58.5,110.409Z" transform="translate(-26.353 -45.84)" fill="#f77f89" fill-rule="evenodd"/>
      <path id="Path_177" data-name="Path 177" d="M228.86,337.96c0-7.611,7.6-13.78,16.984-13.78s16.979,6.168,16.979,13.78-7.6,13.78-16.979,13.78S228.86,345.571,228.86,337.96Z" transform="translate(-117.399 -166.092)" fill="#bf9111" fill-rule="evenodd"/>
      <path id="Path_178" data-name="Path 178" d="M175.175,31c13.075,0,19.566,11.9,20.193,16.03s-.181,12.841.978,16.328c3.219,9.49,14.939,14.621,14.939,24.223,0,22.218-24.458,15.785-31.9,15.5s-27.026-.91-27.026-14.24c0-5.3,3.605-5.3,3.669-12.2.054-5.831-3.2-7.479-3.2-21.45C152.859,49.48,160.612,30.931,175.175,31Z" transform="translate(-78.32 -16.325)" fill-rule="evenodd"/>
      <path id="Path_179" data-name="Path 179" d="M112.172,194.11c-.352-3.8-2.641-42.068,8.873-57.721a25.438,25.438,0,0,1-.846-3.874c-4.221,3.043-20.007,19.077-22.012,21.743-1.825-2.319-21.484-29.868-22.462-30.2s-10.585,4.133-10.8,5.156,23.4,46.554,29.35,48.471c2.495.8,6.017-1.658,7.117-2.015.152,2.446-21.875,66.526-.851,67.015C113.043,227.1,112.519,197.887,112.172,194.11Z" transform="translate(-33.656 -63.856)" fill="#f7d167" fill-rule="evenodd"/>
      <path id="Path_180" data-name="Path 180" d="M120.267,291.05,91,461.376l25.857-.108,19.2-81.475,9.607,82.849,24.8-.318,1.7-171.06Z" transform="translate(-46.975 -149.168)" fill="#3b4161" fill-rule="evenodd"/>
      <path id="Path_181" data-name="Path 181" d="M186.7,214.331c-2.685.572-36.433-.113-39.515-1.829s-2.446-7.279,5.151-9.157c-2.69-.67-8.4-3.948-.7-5.1,1.375-13.77-4.593-64.178,19.136-65.059,16.773-2.47,19.567,12.258,19.567,12.258S189.382,213.758,186.7,214.331Z" transform="translate(-74.791 -68.384)" fill="#6367fd" fill-rule="evenodd"/>
      <path id="Path_182" data-name="Path 182" d="M180.153,44c-9.015,0-16.323,8.5-16.323,18.975s7.308,18.955,16.323,18.955a14.861,14.861,0,0,0,10.175-4.251c-.338-4.755-.382-9.583.352-12.107,1.135-3.131.724-1.82-.44-1.957l1.022-.871c0-2.177.362-.69,2.539-.69l2.583-.108C195.939,51.959,188.86,44,180.153,44Z" transform="translate(-84.18 -22.966)" fill="#f77f89" fill-rule="evenodd"/>
      <path id="Path_183" data-name="Path 183" d="M158,56.7c3.493-.92,6.227-2.607,9.24-7.973,3.59,3.3,6.643,3.365,11.975,2.319-.313,2.607-.567,5.557,2.862,5.909s13.564,4.764,13.564,4.764l-.489-11.564L186.21,40.128,175.761,38.22l-9.211,4.319L160.8,50S154.532,57.6,158,56.7Z" transform="translate(-80.668 -20.013)" fill-rule="evenodd"/>
      <path id="Path_184" data-name="Path 184" d="M206.42,71.647a7.112,7.112,0,1,1,2.088,5.039A7.117,7.117,0,0,1,206.42,71.647Z" transform="translate(-105.936 -33.453)" fill="#f77f89" fill-rule="evenodd"/>
      <path id="Path_185" data-name="Path 185" d="M191.42,101.848a26.065,26.065,0,0,1-.69,10.82c2.412,1.379,12.068,1.854,15-.259-1.12-4.094-2.827-19.077-1.306-24.307C200.6,87.769,190.73,98.482,191.42,101.848Z" transform="translate(-97.921 -45.491)" fill="#f77f89" fill-rule="evenodd"/>
      <path id="Path_186" data-name="Path 186" d="M217.9,326.458a57.606,57.606,0,0,1-3.424,5.019s-3.214-1.017-4.094.161-6.755,8.609-3.869,11.138,6.124-3.786,7.034-4.608a98.515,98.515,0,0,1,8.458,8.717,31.786,31.786,0,0,1,.465-6.012c.489-1.565,3.5-5.743,4.51-6.848S219.555,323.68,217.9,326.458Z" transform="translate(-105.58 -166.991)" fill="#f77f89" fill-rule="evenodd"/>
      <path id="Path_187" data-name="Path 187" d="M215.037,138.38c-1.531,3.864-3.361,7.641-8.1,10.409-.269,4.329,3.771,63.669,7.122,69.813a29.8,29.8,0,0,0,5,6.56c-1.032,2.769-1.957,5.278-1.575,6.08.489,1.047,8.986,8.316,10.135,8,.753-.205,2.891-2.416,4.691-4.4,8.316,4.794,15.991,8.208,16.142,12.684,0,3.2-1.076,4.2-2.392,5.743,1.9-.939,6.452-5.738,6.55-11.642.122-7.445-7.054-20.467-8.316-23.768,2.343-2.661,10.541-13.936,12.474-23.847C251.812,174.739,232.221,138.913,215.037,138.38Z" transform="translate(-106.194 -71.179)" fill="#f7d167" fill-rule="evenodd"/>
      <path id="Path_188" data-name="Path 188" d="M234.625,210.55c1.683,2.676,13.369,20.31,13.369,20.31s-10.952,22.467-14.743,30.294" transform="translate(-119.642 -108.046)" fill="none" stroke="#ff3274" stroke-linecap="round" stroke-linejoin="round" stroke-width="2"/>
      <path id="Path_189" data-name="Path 189" d="M291.286,253.659a11.51,11.51,0,0,1,1.419-21.279" transform="translate(-145.981 -119.197)" fill="none" stroke="#ff3274" stroke-linecap="round" stroke-linejoin="round" stroke-width="2"/>
      <path id="Path_190" data-name="Path 190" d="M267.44,244.06l-4.06,3.913" transform="translate(-135.033 -125.164)" fill="none" stroke="#ff3274" stroke-linecap="round" stroke-linejoin="round" stroke-width="2"/>
      <path id="Path_191" data-name="Path 191" d="M268.394,254.072l-5.014-2.6" transform="translate(-135.033 -128.949)" fill="none" stroke="#ff3274" stroke-linecap="round" stroke-linejoin="round" stroke-width="2"/>
      <path id="Path_192" data-name="Path 192" d="M233.55,319.39a62.056,62.056,0,0,0,10.272,7.225" transform="translate(-119.795 -163.645)" fill="none" stroke="#ff3274" stroke-linecap="round" stroke-linejoin="round" stroke-width="2"/>
      <path id="Path_193" data-name="Path 193" d="M111.48,215.885a7.783,7.783,0,0,1,13.393,5.381v.181" transform="translate(-57.437 -109.55)" fill="none" stroke="#ff3274" stroke-linecap="round" stroke-linejoin="round" stroke-width="2"/>
      <path id="Path_194" data-name="Path 194" d="M128.676,185.79l-4.016,5.973" transform="translate(-64.17 -95.398)" fill="none" stroke="#ff3274" stroke-linecap="round" stroke-linejoin="round" stroke-width="2"/>
      <path id="Path_195" data-name="Path 195" d="M136.578,190.379l-3.458-4.8" transform="translate(-68.492 -95.29)" fill="none" stroke="#ff3274" stroke-linecap="round" stroke-linejoin="round" stroke-width="2"/>
      <path id="Path_196" data-name="Path 196" d="M81.491,131.65,70.27,138.8" transform="translate(-36.386 -67.741)" fill="none" stroke="#ff3274" stroke-linecap="round" stroke-linejoin="round" stroke-width="2"/>
      <path id="Path_197" data-name="Path 197" d="M180.806,410.109c-.7-4.774-3.385-45.644-1.5-59.869" transform="translate(-91.749 -179.405)" fill="none" stroke="#737999" stroke-linecap="round" stroke-linejoin="round" stroke-width="2"/>
      <path id="Path_198" data-name="Path 198" d="M238.932,486.581l7.538-3-8.11-5.058" transform="translate(-122.252 -244.935)" fill="none" stroke="#737999" stroke-linecap="round" stroke-linejoin="round" stroke-width="2"/>
      <path id="Path_199" data-name="Path 199" d="M161.51,490.857l7.91-1.169-5.146-5.528" transform="translate(-82.994 -247.816)" fill="none" stroke="#737999" stroke-linecap="round" stroke-linejoin="round" stroke-width="2"/>
      <path id="Path_200" data-name="Path 200" d="M147.07,312.92a397,397,0,0,0,41.09.9" transform="translate(-75.618 -160.34)" fill="none" stroke="#737999" stroke-linecap="round" stroke-linejoin="round" stroke-width="2"/>
      <path id="Path_201" data-name="Path 201" d="M94.38,618.6l26.63-.753" transform="translate(-48.702 -316.11)" fill="none" stroke="#737999" stroke-linecap="round" stroke-linejoin="round" stroke-width="2"/>
      <path id="Path_202" data-name="Path 202" d="M200.56,622.4l25.96-.739" transform="translate(-102.943 -318.056)" fill="none" stroke="#737999" stroke-linecap="round" stroke-linejoin="round" stroke-width="2"/>
      <path id="Path_203" data-name="Path 203" d="M221.55,351.08l10.85,10.952" transform="translate(-113.665 -179.834)" fill="none" stroke="#737999" stroke-linecap="round" stroke-linejoin="round" stroke-width="2"/>
      <path id="Path_204" data-name="Path 204" d="M208.13,337.54l2.03,2.045" transform="translate(-106.81 -172.917)" fill="none" stroke="#737999" stroke-linecap="round" stroke-linejoin="round" stroke-width="2"/>
      <path id="Path_205" data-name="Path 205" d="M210.548,474.867,203,315.17" transform="translate(-104.189 -161.49)" fill="none" stroke="#737999" stroke-linecap="round" stroke-linejoin="round" stroke-width="2"/>
      <path id="Path_206" data-name="Path 206" d="M152.18,417.94,126,526.123" transform="translate(-64.855 -213.988)" fill="none" stroke="#737999" stroke-linecap="round" stroke-linejoin="round" stroke-width="2"/>
      <path id="Path_207" data-name="Path 207" d="M190.73,80.826c0-.978.4-1.746.9-1.746s.9.783.9,1.746-.406,1.741-.9,1.741S190.73,81.785,190.73,80.826Z" transform="translate(-97.921 -40.886)" fill="#b5545c" fill-rule="evenodd"/>
      <path id="Path_208" data-name="Path 208" d="M169.59,80.826c0-.978.406-1.746.9-1.746s.9.783.9,1.746-.4,1.741-.9,1.741S169.59,81.785,169.59,80.826Z" transform="translate(-87.122 -40.886)" fill="#b5545c" fill-rule="evenodd"/>
      <path id="Path_209" data-name="Path 209" d="M178.9,83.31c.147,1.36-.147,4.4-1.174,5.733" transform="translate(-91.28 -43.047)" fill="none" stroke="#b5545c" stroke-linecap="round" stroke-linejoin="round" stroke-width="2"/>
      <path id="Path_210" data-name="Path 210" d="M190.747,100.55a2.24,2.24,0,0,1,.068.548,2.157,2.157,0,0,1-2.935,2.025" transform="translate(-96.465 -51.854)" fill="none" stroke="#b5545c" stroke-linecap="round" stroke-linejoin="round" stroke-width="2"/>
      <path id="Path_211" data-name="Path 211" d="M192.61,120.072a14.186,14.186,0,0,0,2.245.181,13.907,13.907,0,0,0,5.64-1.2" transform="translate(-98.881 -61.304)" fill="none" stroke="#b5545c" stroke-linecap="round" stroke-linejoin="round" stroke-width="2"/>
      <path id="Path_212" data-name="Path 212" d="M212,73.258a4.6,4.6,0,1,1,4.549,5.307,4.779,4.779,0,0,1-1.3-.186" transform="translate(-108.787 -35.92)" fill="none" stroke="#b5545c" stroke-linecap="round" stroke-linejoin="round" stroke-width="2"/>
      <path id="Path_213" data-name="Path 213" d="M270.809,302.89l-10.2,14.675" transform="translate(-133.618 -155.217)" fill="none" stroke="#ff3274" stroke-linecap="round" stroke-linejoin="round" stroke-width="2"/>
      <path id="Path_214" data-name="Path 214" d="M270.579,37.17h5.645c.264,0,.489.313.489.7v3.517c0,.386-.22.695-.489.695h-5.645c-.264,0-.489-.308-.489-.695V37.869C270.095,37.483,270.315,37.17,270.579,37.17Z" transform="translate(-138.461 -19.477)" fill="#ff3274" fill-rule="evenodd"/>
      <path id="Path_215" data-name="Path 215" d="M284.553,40.334V42.5c0,.064-.044.088-.093.059l-1.878-1.071L280.708,40.4c-.054-.029-.054-.078,0-.108l1.873-1.086,1.878-1.081a.059.059,0,0,1,.093.054Z" transform="translate(-143.865 -19.961)" fill="#ff3274" fill-rule="evenodd"/>
      <path id="Path_216" data-name="Path 216" d="M262.36,33.506a8.316,8.316,0,1,1,8.316,8.316A8.316,8.316,0,0,1,262.36,33.506Z" transform="translate(-134.512 -13.357)" fill="none" stroke="#ff3274" stroke-linecap="round" stroke-linejoin="round" stroke-width="2"/>
      <path id="Path_217" data-name="Path 217" d="M27.8,1h119.14a12.1,12.1,0,0,1,12.1,12.1v60.69a12.1,12.1,0,0,1-12.1,12.1H27.8a12.1,12.1,0,0,1-12.1-12.1V13.1A12.1,12.1,0,0,1,27.8,1Z" transform="translate(-8.509 -1)" fill="none" stroke="#9b9b9b" stroke-linecap="round" stroke-linejoin="round" stroke-width="2"/>
      <path id="Path_218" data-name="Path 218" d="M159.226,16.87H17.55" transform="translate(-9.454 -9.107)" fill="none" stroke="#9b9b9b" stroke-linecap="round" stroke-linejoin="round" stroke-width="2"/>
      <path id="Path_219" data-name="Path 219" d="M33.49,7.422a1.717,1.717,0,1,1,.5,1.217A1.722,1.722,0,0,1,33.49,7.422Z" transform="translate(-17.597 -3.401)" fill="none" stroke="#ff3274" stroke-linecap="round" stroke-linejoin="round" stroke-width="2"/>
      <path id="Path_220" data-name="Path 220" d="M47.36,7.422a1.722,1.722,0,1,1,1.722,1.722A1.722,1.722,0,0,1,47.36,7.422Z" transform="translate(-24.682 -3.401)" fill="none" stroke="#ff3274" stroke-linecap="round" stroke-linejoin="round" stroke-width="2"/>
      <path id="Path_221" data-name="Path 221" d="M61.24,7.422a1.717,1.717,0,1,1,.5,1.219A1.722,1.722,0,0,1,61.24,7.422Z" transform="translate(-31.773 -3.401)" fill="none" stroke="#ff3274" stroke-linecap="round" stroke-linejoin="round" stroke-width="2"/>
      <path id="Path_222" data-name="Path 222" d="M192.231,652.582l14.479-.122-.142,20.662-44.758-.284c.171-4.251,8.4-11.8,18.441-13.3S192.231,653.932,192.231,652.582Z" transform="translate(-83.148 -333.79)" fill="#9b9b9b" fill-rule="evenodd"/>
      <path id="Path_223" data-name="Path 223" d="M178.4,674.76a25.138,25.138,0,0,1,4.7,5.381" transform="translate(-91.623 -345.182)" fill="none" stroke="#4e4242" stroke-linecap="round" stroke-linejoin="round" stroke-width="2"/>
      <path id="Path_224" data-name="Path 224" d="M192.3,669.26a24.872,24.872,0,0,1,4.7,5.381" transform="translate(-98.723 -342.372)" fill="none" stroke="#4e4242" stroke-linecap="round" stroke-linejoin="round" stroke-width="2"/>
      <path id="Path_225" data-name="Path 225" d="M195.856,656.283c-12.655-13.662,11.52-17.155.044,0" transform="translate(-98.611 -329.821)" fill="none" stroke="#4e4242" stroke-linecap="round" stroke-linejoin="round" stroke-width="2"/>
      <path id="Path_226" data-name="Path 226" d="M200,662.845c13.511-15.961,21.215,10.483,0,.049" transform="translate(-102.657 -336.407)" fill="none" stroke="#4e4242" stroke-linecap="round" stroke-linejoin="round" stroke-width="2"/>
      <path id="Path_227" data-name="Path 227" d="M236.135,659.79h-16.7" transform="translate(-112.582 -337.534)" fill="none" stroke="#4e4242" stroke-linecap="round" stroke-linejoin="round" stroke-width="2"/>
      <path id="Path_228" data-name="Path 228" d="M206.8,694.345l-44.568-.225" transform="translate(-83.362 -355.071)" fill="none" stroke="#4e4242" stroke-linecap="round" stroke-linejoin="round" stroke-width="2"/>
      <path id="Path_229" data-name="Path 229" d="M81.051,653.432l14.474-.122-.142,20.662L50.63,673.7c.171-4.251,8.4-11.8,18.441-13.3S81.051,654.782,81.051,653.432Z" transform="translate(-26.353 -334.224)" fill="#9b9b9b" fill-rule="evenodd"/>
      <path id="Path_230" data-name="Path 230" d="M67.19,675.61a25.137,25.137,0,0,1,4.7,5.381" transform="translate(-34.812 -345.616)" fill="none" stroke="#4e4242" stroke-linecap="round" stroke-linejoin="round" stroke-width="2"/>
      <path id="Path_231" data-name="Path 231" d="M81.09,670.11a24.888,24.888,0,0,1,4.7,5.381" transform="translate(-41.913 -342.806)" fill="none" stroke="#4e4242" stroke-linecap="round" stroke-linejoin="round" stroke-width="2"/>
      <path id="Path_232" data-name="Path 232" d="M84.646,657.127c-12.655-13.657,11.52-17.15.044,0" transform="translate(-41.801 -330.253)" fill="none" stroke="#4e4242" stroke-linecap="round" stroke-linejoin="round" stroke-width="2"/>
      <path id="Path_233" data-name="Path 233" d="M88.78,663.693c13.511-15.966,21.21,10.483,0,.049" transform="translate(-45.841 -336.839)" fill="none" stroke="#4e4242" stroke-linecap="round" stroke-linejoin="round" stroke-width="2"/>
      <path id="Path_234" data-name="Path 234" d="M124.915,660.64h-16.7" transform="translate(-55.767 -337.969)" fill="none" stroke="#4e4242" stroke-linecap="round" stroke-linejoin="round" stroke-width="2"/>
      <path id="Path_235" data-name="Path 235" d="M95.573,695.21,51,695" transform="translate(-26.542 -355.521)" fill="none" stroke="#4e4242" stroke-linecap="round" stroke-linejoin="round" stroke-width="2"/>
      <path id="Path_236" data-name="Path 236" stroke="#b5545c" d="M56.169,102.247c-.655-1.556-.367-7.45,3.209-9.407" fill="#f77f89" transform="translate(-29.04 -47.915)" stroke-linecap="round" stroke-linejoin="round" stroke-width="2" fill-rule="evenodd"/>
      <path id="Path_237" data-name="Path 237" stroke="#b5545c" d="M66.212,108.063c-.4-1.957.646-6.071,2.774-7.523" fill="#f77f89" transform="translate(-34.27 -51.849)" stroke-linecap="round" stroke-linejoin="round" stroke-width="2" fill-rule="evenodd"/>
      <path id="Path_238" data-name="Path 238" d="M207.08,148.965a27.459,27.459,0,0,0,7.959-10.175" transform="translate(-106.273 -71.388)" fill="none" stroke="#ff3274" stroke-linecap="round" stroke-linejoin="round" stroke-width="2"/>
      <path id="Path_239" data-name="Path 239" d="M164.32,277.83c9.24,2,20.246,1.3,25.627.7" transform="translate(-84.43 -142.415)" fill="none" stroke="#4c4fd9" stroke-linecap="round" stroke-linejoin="round" stroke-width="2"/>
      <path id="Path_240" data-name="Path 240" d="M27.932,1h119.15a12.1,12.1,0,0,1,12.1,12.1v60.69a12.1,12.1,0,0,1-12.1,12.1H27.932a12.1,12.1,0,0,1-12.1-12.1V13.1A12.1,12.1,0,0,1,27.932,1Z" transform="translate(-8.576 -1)" fill="#fff" fill-rule="evenodd" opacity="0.26"/>
    </g>
  </g>
</svg>
