<svg xmlns="http://www.w3.org/2000/svg" width="254.923" height="245.032" viewBox="0 0 254.923 245.032">
  <g id="Layer_1" data-name="Layer 1" transform="translate(0 1)">
    <path id="Path_84" data-name="Path 84" d="M285.44,272.662c0-2.638,4.151-4.772,9.269-4.772s9.269,2.134,9.269,4.772-4.151,4.768-9.269,4.768S285.44,275.3,285.44,272.662Z" transform="translate(-174.696 -164.343)" fill="#8dc5e0" fill-rule="evenodd"/>
    <path id="Path_85" data-name="Path 85" d="M248.11,557.915l2.813,9.055,11.67-2.666-1.145-11.515Z" transform="translate(-151.849 -338.709)" fill="#ff3274" fill-rule="evenodd"/>
    <path id="Path_86" data-name="Path 86" d="M165.565,282.94H343.056a1.715,1.715,0,0,1,1.715,1.715v3.1a1.715,1.715,0,0,1-1.715,1.715H165.565a1.715,1.715,0,0,1-1.715-1.715v-3.1A1.715,1.715,0,0,1,165.565,282.94Z" transform="translate(-100.28 -173.554)" fill="#aadaf1" fill-rule="evenodd"/>
    <path id="Path_87" data-name="Path 87" d="M173.907,300.18,138,410.3" transform="translate(-84.459 -184.105)" fill="none" stroke="#aadaf1" stroke-linecap="round" stroke-linejoin="round" stroke-width="2"/>
    <path id="Path_88" data-name="Path 88" d="M249.042,300.18,213.15,410.3" transform="translate(-130.453 -184.105)" fill="none" stroke="#aadaf1" stroke-linecap="round" stroke-linejoin="round" stroke-width="2"/>
    <path id="Path_89" data-name="Path 89" d="M305.66,300.18,341.548,410.3" transform="translate(-187.071 -184.105)" fill="none" stroke="#aadaf1" stroke-linecap="round" stroke-linejoin="round" stroke-width="2"/>
    <path id="Path_90" data-name="Path 90" d="M230.55,300.18,266.438,410.3" transform="translate(-141.102 -184.105)" fill="none" stroke="#aadaf1" stroke-linecap="round" stroke-linejoin="round" stroke-width="2"/>
    <path id="Path_91" data-name="Path 91" d="M141.819,537.54l-3.779,8.536,10.46,4.481,4.656-8.629Z" transform="translate(-84.484 -329.375)" fill="#ff3274" fill-rule="evenodd"/>
    <path id="Path_92" data-name="Path 92" d="M130,557.51,141.06,562.3s13.781,12.912,20.14,16.058c-.019,2.867-.388,4.2-2.592,5.016-.985.365-18.8-6.766-18.8-6.766l-2.987-3.2L125.3,568.1Z" transform="translate(-76.687 -341.597)" fill="#6a3416" fill-rule="evenodd"/>
    <path id="Path_93" data-name="Path 93" d="M154.63,549.488a1.4,1.4,0,1,1,.411,1A1.408,1.408,0,0,1,154.63,549.488Z" transform="translate(-94.637 -335.826)" fill="none" stroke="#fff" stroke-linecap="round" stroke-linejoin="round" stroke-width="2"/>
    <path id="Path_94" data-name="Path 94" d="M140.9,554.212a1.412,1.412,0,1,1,1.408,1.412,1.412,1.412,0,0,1-1.408-1.412Z" transform="translate(-86.234 -338.715)" fill="none" stroke="#fff" stroke-linecap="round" stroke-linejoin="round" stroke-width="2"/>
    <path id="Path_95" data-name="Path 95" d="M159.72,560.608a1.408,1.408,0,1,1,1.408,1.408A1.408,1.408,0,0,1,159.72,560.608Z" transform="translate(-97.752 -342.632)" fill="none" stroke="#fff" stroke-linecap="round" stroke-linejoin="round" stroke-width="2"/>
    <path id="Path_96" data-name="Path 96" d="M118.815,579.382l11.278,5.017a1.21,1.21,0,0,1,.629,1.587l-.985,2.215a1.2,1.2,0,0,1-1.6.59l-11.286-5.017a1.2,1.2,0,0,1-.629-1.583l.982-2.215a1.21,1.21,0,0,1,1.61-.594Z" transform="translate(-71.071 -354.915)" fill="#3c1b09" fill-rule="evenodd"/>
    <path id="Path_97" data-name="Path 97" d="M73.628,321.247c25.688-7.236,62.538-3.228,70.488,7.81,2.84,3.942,1.878,10.111,1.164,12.435S114.5,408.308,114.5,408.308l-13.478-5.125,13.245-52.377S70.435,322.139,73.628,321.247Z" transform="translate(-44.96 -194.766)" fill="#c4c4c4" fill-rule="evenodd"/>
    <path id="Path_98" data-name="Path 98" d="M156.81,463.995,172.325,414" transform="translate(-95.971 -253.766)" fill="none" stroke="#8d8d8d" stroke-linecap="round" stroke-linejoin="round" stroke-width="2"/>
    <path id="Path_99" data-name="Path 99" d="M148,524.33l14.464,5.432" transform="translate(-90.58 -321.29)" fill="none" stroke="#8d8d8d" stroke-linecap="round" stroke-linejoin="round" stroke-width="2"/>
    <path id="Path_100" data-name="Path 100" d="M254.76,581.431l11.585-3.306s18.844,1.253,25.758-.345c1.8,2.231,2.374,3.492,1.164,5.525-.532.9-18.829,6.681-18.829,6.681L270.1,589.4l-12.256,3.209Z" transform="translate(-155.919 -354.003)" fill="#6a3416" fill-rule="evenodd"/>
    <path id="Path_101" data-name="Path 101" d="M256.209,608.126l11.9-3.271a1.2,1.2,0,0,1,1.49.823l.644,2.328a1.2,1.2,0,0,1-.861,1.47l-11.9,3.271a1.2,1.2,0,0,1-1.49-.823l-.644-2.328a1.2,1.2,0,0,1,.861-1.471Z" transform="translate(-156.255 -370.545)" fill="#3c1b09" fill-rule="evenodd"/>
    <path id="Path_102" data-name="Path 102" d="M268.1,574.506a1.412,1.412,0,1,1,1.408,1.408A1.412,1.412,0,0,1,268.1,574.506Z" transform="translate(-164.084 -351.133)" fill="none" stroke="#fff" stroke-linecap="round" stroke-linejoin="round" stroke-width="2"/>
    <path id="Path_103" data-name="Path 103" d="M274.61,562.766a1.412,1.412,0,1,1,1.408,1.408,1.412,1.412,0,0,1-1.408-1.408Z" transform="translate(-168.068 -343.948)" fill="none" stroke="#fff" stroke-linecap="round" stroke-linejoin="round" stroke-width="2"/>
    <path id="Path_104" data-name="Path 104" d="M254.76,571.928a1.408,1.408,0,1,1,1.408,1.408,1.408,1.408,0,0,1-1.408-1.408Z" transform="translate(-155.919 -349.56)" fill="none" stroke="#fff" stroke-linecap="round" stroke-linejoin="round" stroke-width="2"/>
    <path id="Path_105" data-name="Path 105" d="M7.616,408.63H66.511a7.616,7.616,0,0,1,7.616,7.616h0a7.616,7.616,0,0,1-7.616,7.616H7.616A7.616,7.616,0,0,1,0,416.246H0a7.616,7.616,0,0,1,7.616-7.616Z" transform="translate(0 -250.479)" fill="#aadaf1" fill-rule="evenodd"/>
    <path id="Path_106" data-name="Path 106" d="M86.844,434.48h4.935a1.474,1.474,0,0,1,1.474,1.474V490.5a1.474,1.474,0,0,1-1.474,1.474H86.844A1.474,1.474,0,0,1,85.37,490.5V435.954A1.474,1.474,0,0,1,86.844,434.48Z" transform="translate(-52.248 -266.3)" fill="#aadaf1" fill-rule="evenodd"/>
    <path id="Path_107" data-name="Path 107" d="M80.188,537.54h8.923a2.429,2.429,0,0,1,2.429,2.429v13.168a2.429,2.429,0,0,1-2.448,2.429H80.169a2.429,2.429,0,0,1-2.429-2.429V539.969a2.429,2.429,0,0,1,2.448-2.429Z" transform="translate(-47.579 -329.375)" fill="#aadaf1" fill-rule="evenodd"/>
    <path id="Path_108" data-name="Path 108" d="M19.32,593.377v-2.572A6.805,6.805,0,0,1,26.125,584H48.888" transform="translate(-11.824 -357.81)" fill="none" stroke="#aadaf1" stroke-linecap="round" stroke-linejoin="round" stroke-width="2"/>
    <path id="Path_109" data-name="Path 109" d="M124.922,593.377v-2.572A6.809,6.809,0,0,0,118.1,584H95.35" transform="translate(-58.356 -357.81)" fill="none" stroke="#aadaf1" stroke-linecap="round" stroke-linejoin="round" stroke-width="2"/>
    <path id="Path_110" data-name="Path 110" d="M66.78,593.377v-3.1c0-3.465,1.8-6.273,4.027-6.273H85.061c2.223,0,4.027,2.809,4.027,6.273v3.1" transform="translate(-40.871 -357.81)" fill="none" stroke="#aadaf1" stroke-linecap="round" stroke-linejoin="round" stroke-width="2"/>
    <path id="Path_111" data-name="Path 111" d="M9.71,611.908a3.728,3.728,0,1,1,3.728,3.728,3.728,3.728,0,0,1-3.728-3.728Z" transform="translate(-5.943 -372.609)" fill="none" stroke="#aadaf1" stroke-linecap="round" stroke-linejoin="round" stroke-width="2"/>
    <path id="Path_112" data-name="Path 112" d="M57.17,611.908a3.728,3.728,0,1,1,3.728,3.728A3.728,3.728,0,0,1,57.17,611.908Z" transform="translate(-34.989 -372.609)" fill="none" stroke="#aadaf1" stroke-linecap="round" stroke-linejoin="round" stroke-width="2"/>
    <path id="Path_113" data-name="Path 113" d="M118.4,608.17a3.732,3.732,0,1,1-3.728,3.732,3.732,3.732,0,0,1,3.728-3.732" transform="translate(-70.181 -372.602)" fill="none" stroke="#aadaf1" stroke-linecap="round" stroke-linejoin="round" stroke-width="2"/>
    <path id="Path_114" data-name="Path 114" d="M162,611.908a3.728,3.728,0,1,1,3.728,3.728A3.728,3.728,0,0,1,162,611.908Z" transform="translate(-99.148 -372.609)" fill="none" stroke="#aadaf1" stroke-linecap="round" stroke-linejoin="round" stroke-width="2"/>
    <path id="Path_115" data-name="Path 115" d="M15.206,285.98c-23.5,49.087,23.93,50.41,40.575,50.165s21.024-1.5,25.529-2.588C82.749,337.919,100,394.392,100,394.392l15.15-4.578s-11.581-71.745-14.2-76.59C93.775,299.9,51.3,299.179,45.922,299.5S18.186,279.757,15.206,285.98Z" transform="translate(-5.382 -174.682)" fill="#c4c4c4" fill-rule="evenodd"/>
    <path id="Path_116" data-name="Path 116" d="M25.288,305.16c-16.1,40.175,52.939,37.754,68.039,33.153,2.258,6.46,20.951,66.5,20.951,66.5" transform="translate(-13.998 -187.153)" fill="none" stroke="#8d8d8d" stroke-linecap="round" stroke-linejoin="round" stroke-width="2"/>
    <path id="Path_117" data-name="Path 117" d="M226.416,357.781A22,22,0,0,1,208.86,336.85" transform="translate(-127.827 -206.548)" fill="none" stroke="#8d8d8d" stroke-linecap="round" stroke-linejoin="round" stroke-width="2"/>
    <path id="Path_118" data-name="Path 118" d="M177.07,411.974A67.084,67.084,0,0,0,184.3,410.5c.6,1.808,3.915,12.582,7.589,24.57" transform="translate(-108.371 -251.624)" fill="none" stroke="#8d8d8d" stroke-linecap="round" stroke-linejoin="round" stroke-width="2"/>
    <path id="Path_119" data-name="Path 119" d="M164.569,348.267c-1.265-6.312-2.328-10.813-2.9-11.907-6.751-12.516-44.679-13.913-53.676-13.765" transform="translate(-66.092 -197.818)" fill="none" stroke="#8d8d8d" stroke-linecap="round" stroke-linejoin="round" stroke-width="2"/>
    <path id="Path_120" data-name="Path 120" d="M256.249,544.06l-15.729,4.753" transform="translate(-147.204 -333.366)" fill="none" stroke="#8d8d8d" stroke-linecap="round" stroke-linejoin="round" stroke-width="2"/>
    <path id="Path_121" data-name="Path 121" d="M98.67,79a8.039,8.039,0,1,1,8.035,8.039A8.039,8.039,0,0,1,98.67,79Z" transform="translate(-60.388 -43.817)" fill="#6a3416" fill-rule="evenodd"/>
    <path id="Path_122" data-name="Path 122" d="M294.134,256.381c1.323-1.086,4.908-3.736,6.056-3.721s4.625,3.282,4.7,4.14a2.8,2.8,0,0,1-1.688,2.308c-.66.1-2.782-1.94-3.247-1.758a6.376,6.376,0,0,0-1.789,1.75C297.871,259.581,292.815,257.448,294.134,256.381Z" transform="translate(-179.883 -155.022)" fill="#f77f89" fill-rule="evenodd"/>
    <path id="Path_123" data-name="Path 123" d="M161.508,160.822l7.938,8.1s6.006-12.892,10.188-19.713c-.846-1.218-2.328-6.072-2.138-6.984s4.559-9.517,5.614-9.017a3.342,3.342,0,0,1,1.5,3.88c.625-2.239,1.68-5.335,2.611-5.641s2.89.1,2.805,1.668a2.646,2.646,0,0,1,2.134-1.789c.776-.035,2.359.629,2.468,1.606.132,1.222-1.614,4.14-1.827,4.555.815-1.11.807-1.164,1.3-1.164a2.57,2.57,0,0,1,1.831,3.6c-.811,2.107-4.819,11.938-7.922,12.357.144,1.909-9.106,28.543-9.106,28.543l-14.014-.559-10.208-13.5Z" transform="translate(-94.668 -80.763)" fill="#f77f89" fill-rule="evenodd"/>
    <path id="Path_124" data-name="Path 124" d="M50.38,131.92c-25.773.031-34.386,60.524-31.694,64.672,1.975,3.042,25.354,11.985,33.366,9.238,2.828-.97,10.188-16.082,14.355-31.329,4.442-3.647,12.85-10.553,14.219-11.884-.388-2.921-7.143-14.693-14.138-19.907C64.072,137.189,59.587,131.92,50.38,131.92Z" transform="translate(-11.148 -81.126)" fill="#3b4161" fill-rule="evenodd"/>
    <path id="Path_125" data-name="Path 125" d="M118.3,220.258s12.3,15.519,15.538,16.78,38.185.857,40.737.559,2.087,1.649,4.4,1.773a4.308,4.308,0,0,0,4.093-3.049c1.459,1.622,4.031,4.116,5.719,3.247,1.195-.621,1.21-1.164.388-2.021,1.164.671,3.267,1.657,4.116.993,1.366-1.063,1.494-2.056,1.032-2.883-1.424-2.557-6.01-6.177-7.1-6.6-1.257-.5-5.086.869-6.929.982-8.353.516-29.416-4.679-36.326-4.993-1.016-1.94-11.55-14.677-12.365-15.95C128.709,211.571,118.3,220.258,118.3,220.258Z" transform="translate(-72.402 -128.362)" fill="#f77f89" fill-rule="evenodd"/>
    <path id="Path_126" data-name="Path 126" d="M109.45,80.59a12.206,12.206,0,1,1,12.2,12.2,12.206,12.206,0,0,1-12.2-12.2Z" transform="translate(-66.986 -42.238)" fill="#f77f89" fill-rule="evenodd"/>
    <path id="Path_127" data-name="Path 127" d="M105.01,92.726c.05,1.9-3.922,13.893-5.49,16.19.776,1.835,8.369,6.437,11.857,5.455.388-2.328,1.688-7.007,2.491-8.047S104.959,90.813,105.01,92.726Z" transform="translate(-60.909 -57.032)" fill="#f77f89" fill-rule="evenodd"/>
    <path id="Path_128" data-name="Path 128" d="M118.443,33.54a8,8,0,0,0-6.087,2.84A9.117,9.117,0,0,0,100.4,47.6a5.335,5.335,0,0,0-1.723,3.919,5.451,5.451,0,0,0,4.462,5.323c.062-.3.062-.508.159-.85.264-.908,4.213-2.568,4.656-2.27a3.08,3.08,0,0,0,1.164.512.93.93,0,0,0,.109,0,9.2,9.2,0,0,0,8.027-4.753,8.147,8.147,0,0,0,1.2.12,8.039,8.039,0,1,0,8.039-8.039A8.039,8.039,0,0,0,118.443,33.54Z" transform="translate(-60.395 -20.915)" fill="#6a3416" fill-rule="evenodd"/>
    <path id="Path_129" data-name="Path 129" d="M101.11,73.354a4.726,4.726,0,1,1,1.38,3.349,4.726,4.726,0,0,1-1.38-3.349Z" transform="translate(-61.882 -42.397)" fill="#f77f89" fill-rule="evenodd"/>
    <path id="Path_130" data-name="Path 130" d="M38.54,223.584c-.508-7.5,6.662-35.38,12.027-43.674" transform="translate(-23.572 -110.497)" fill="none" stroke="#737999" stroke-linecap="round" stroke-linejoin="round" stroke-width="2"/>
    <path id="Path_131" data-name="Path 131" d="M79.53,176.589c1.249,2.58,7.43,14.006,12.667,18.037,2-1.893,16.4-14.165,16.4-14.165-1.839-3.418-10.681-14.134-13.548-16.761" transform="translate(-48.674 -100.576)" fill="none" stroke="#737999" stroke-linecap="round" stroke-linejoin="round" stroke-width="2"/>
    <path id="Path_132" data-name="Path 132" d="M105.19,214.125l17.312-14.3" transform="translate(-64.379 -122.683)" fill="none" stroke="#737999" stroke-linecap="round" stroke-linejoin="round" stroke-width="2"/>
    <path id="Path_133" data-name="Path 133" d="M116.282,150.57a3.744,3.744,0,0,1-.535,1.071c-2.056,2.871-7.853,2.557-12.947-.7" transform="translate(-62.916 -92.54)" fill="none" stroke="#737999" stroke-linecap="round" stroke-linejoin="round" stroke-width="2"/>
    <path id="Path_134" data-name="Path 134" d="M142.77,159.8a35,35,0,0,1,1.758,14.208" transform="translate(-87.379 -98.189)" fill="none" stroke="#737999" stroke-linecap="round" stroke-linejoin="round" stroke-width="2"/>
    <path id="Path_135" data-name="Path 135" d="M159.2,208.5l6.518-5.785" transform="translate(-97.434 -124.457)" fill="none" stroke="#737999" stroke-linecap="round" stroke-linejoin="round" stroke-width="2"/>
    <path id="Path_136" data-name="Path 136" d="M86,278.763c2.153-.338,13.909-.1,11.736.64s-6.239,1.261-4.427,1.688a44.747,44.747,0,0,0,5.28.908" transform="translate(-52.634 -170.906)" fill="none" stroke="#737999" stroke-linecap="round" stroke-linejoin="round" stroke-width="2"/>
    <path id="Path_137" data-name="Path 137" d="M157.534,100.68a8,8,0,0,0,.927,4.547" transform="translate(-96.396 -62.007)" fill="none" stroke="#b5545c" stroke-linecap="round" stroke-linejoin="round" stroke-width="2"/>
    <path id="Path_138" data-name="Path 138" d="M140.338,94.962c.388-.92,1.164-1.474,1.7-1.238s.648,1.164.248,2.091-1.164,1.474-1.7,1.238S139.934,95.885,140.338,94.962Z" transform="translate(-85.742 -57.716)" fill="#b5545c" fill-rule="evenodd"/>
    <path id="Path_139" data-name="Path 139" d="M164.088,100.368c.388-.92,1.164-1.474,1.7-1.242s.648,1.164.248,2.091-1.164,1.474-1.7,1.238S163.684,101.283,164.088,100.368Z" transform="translate(-100.277 -61.023)" fill="#b5545c" fill-rule="evenodd"/>
    <path id="Path_140" data-name="Path 140" d="M136.255,114.412a3.973,3.973,0,0,1-2.755-3.422" transform="translate(-81.705 -68.317)" fill="none" stroke="#b5545c" stroke-linecap="round" stroke-linejoin="round" stroke-width="2"/>
    <path id="Path_141" data-name="Path 141" d="M122.533,122.373a12.214,12.214,0,0,1-7.973-5.323" transform="translate(-70.113 -72.025)" fill="none" stroke="#b5545c" stroke-linecap="round" stroke-linejoin="round" stroke-width="2"/>
    <path id="Path_142" data-name="Path 142" d="M112.933,92.2a4.656,4.656,0,0,1-1.649.3,4.731,4.731,0,0,1-1.271-.174" transform="translate(-67.33 -56.817)" fill="none" stroke="#b5545c" stroke-linecap="round" stroke-linejoin="round" stroke-width="2"/>
    <path id="Path_143" data-name="Path 143" d="M107.72,79.555a2.766,2.766,0,1,1,3.492-2.669" transform="translate(-64.678 -45.751)" fill="none" stroke="#b5545c" stroke-linecap="round" stroke-linejoin="round" stroke-width="2"/>
    <path id="Path_144" data-name="Path 144" d="M185,235.95l-12.908-1.971L164.08,223.69" transform="translate(-100.421 -137.292)" fill="none" stroke="#b5545c" stroke-linecap="round" stroke-linejoin="round" stroke-width="2"/>
    <path id="Path_145" data-name="Path 145" d="M228.19,156.869c.481-1.048,1.816-3.344,1.354-4.345s-3.659-2.355-3.267-3.313a33.769,33.769,0,0,1,2.169-3.55" transform="translate(-138.467 -89.535)" fill="none" stroke="#b5545c" stroke-linecap="round" stroke-linejoin="round" stroke-width="2"/>
    <path id="Path_146" data-name="Path 146" d="M241.878,135.92l-2.448,5" transform="translate(-146.537 -83.574)" fill="none" stroke="#b5545c" stroke-linecap="round" stroke-linejoin="round" stroke-width="2"/>
    <path id="Path_147" data-name="Path 147" d="M250.1,147.2l-1.99,2.824" transform="translate(-151.849 -90.478)" fill="none" stroke="#b5545c" stroke-linecap="round" stroke-linejoin="round" stroke-width="2"/>
    <path id="Path_148" data-name="Path 148" d="M296.59,260.86l3.554,2.716" transform="translate(-181.52 -160.041)" fill="none" stroke="#b5545c" stroke-linecap="round" stroke-linejoin="round" stroke-width="2"/>
    <path id="Path_149" data-name="Path 149" d="M296.654,278.132,294,275.68" transform="translate(-179.935 -169.111)" fill="none" stroke="#b5545c" stroke-linecap="round" stroke-linejoin="round" stroke-width="2"/>
    <path id="Path_150" data-name="Path 150" d="M259.138,37.17h4.473c.21,0,.388.248.388.555v2.79c0,.306-.175.551-.388.551h-4.473c-.213,0-.388-.244-.388-.551v-2.79C258.754,37.418,258.925,37.17,259.138,37.17Z" transform="translate(-158.361 -23.137)" fill="#ff3274" fill-rule="evenodd"/>
    <path id="Path_151" data-name="Path 151" d="M272.4,39.876v1.715c0,.05-.035.07-.074.047l-1.49-.85-1.486-.857c-.043-.023-.043-.062,0-.085l1.486-.861,1.49-.857a.047.047,0,0,1,.074.043Z" transform="translate(-164.829 -23.716)" fill="#ff3274" fill-rule="evenodd"/>
    <path id="Path_152" data-name="Path 152" d="M251,31.786a6.6,6.6,0,1,1,6.6,6.6A6.6,6.6,0,0,1,251,31.786Z" transform="translate(-153.618 -15.805)" fill="none" stroke="#ff3274" stroke-linecap="round" stroke-linejoin="round" stroke-width="2"/>
    <path id="Path_153" data-name="Path 153" d="M13.955,1h94.507a9.6,9.6,0,0,1,9.6,9.6V58.735a9.6,9.6,0,0,1-9.6,9.6H13.955a9.6,9.6,0,0,1-9.595-9.6V10.6A9.6,9.6,0,0,1,13.955,1Z" transform="translate(-2.668 -1)" fill="none" stroke="#9b9b9b" stroke-linecap="round" stroke-linejoin="round" stroke-width="2"/>
    <path id="Path_154" data-name="Path 154" d="M118.569,16.87H6.2" transform="translate(-3.795 -10.713)" fill="none" stroke="#9b9b9b" stroke-linecap="round" stroke-linejoin="round" stroke-width="2"/>
    <path id="Path_155" data-name="Path 155" d="M22.14,7.07a1.366,1.366,0,1,1,1.366,1.362A1.366,1.366,0,0,1,22.14,7.07Z" transform="translate(-13.55 -3.877)" fill="none" stroke="#ff3274" stroke-linecap="round" stroke-linejoin="round" stroke-width="2"/>
    <path id="Path_156" data-name="Path 156" d="M36,7.07a1.362,1.362,0,1,1,.4.964A1.366,1.366,0,0,1,36,7.07Z" transform="translate(-22.033 -3.877)" fill="none" stroke="#ff3274" stroke-linecap="round" stroke-linejoin="round" stroke-width="2"/>
    <path id="Path_157" data-name="Path 157" d="M49.89,7.07a1.366,1.366,0,1,1,1.366,1.362A1.366,1.366,0,0,1,49.89,7.07Z" transform="translate(-30.534 -3.877)" fill="none" stroke="#ff3274" stroke-linecap="round" stroke-linejoin="round" stroke-width="2"/>
    <path id="Path_158" data-name="Path 158" d="M429.582,300.18,393.69,410.3" transform="translate(-240.948 -184.105)" fill="none" stroke="#aadaf1" stroke-linecap="round" stroke-linejoin="round" stroke-width="2"/>
    <path id="Path_159" data-name="Path 159" d="M504.692,300.18,468.8,410.3" transform="translate(-286.917 -184.105)" fill="none" stroke="#aadaf1" stroke-linecap="round" stroke-linejoin="round" stroke-width="2"/>
    <path id="Path_160" data-name="Path 160" d="M561.31,300.18,597.2,410.3" transform="translate(-343.535 -184.105)" fill="none" stroke="#aadaf1" stroke-linecap="round" stroke-linejoin="round" stroke-width="2"/>
    <path id="Path_161" data-name="Path 161" d="M486.2,300.18,522.088,410.3" transform="translate(-297.566 -184.105)" fill="none" stroke="#aadaf1" stroke-linecap="round" stroke-linejoin="round" stroke-width="2"/>
    <path id="Path_162" data-name="Path 162" d="M319.164,115.4H374.8a4.341,4.341,0,0,1,4.341,4.341v45.94a4.341,4.341,0,0,1-4.341,4.341H319.164a4.341,4.341,0,0,1-4.334-4.341v-45.94A4.341,4.341,0,0,1,319.164,115.4Z" transform="translate(-192.683 -71.016)" fill="#aadaf1" fill-rule="evenodd"/>
    <path id="Path_163" data-name="Path 163" d="M319.151,115.39a4.338,4.338,0,0,0-4.341,4.338v45.948A4.341,4.341,0,0,0,319.151,170h2.79c-.023-.264-.085-.52-.085-.776V115.39Z" transform="translate(-192.671 -71.009)" fill="#8dc5e0" fill-rule="evenodd"/>
    <path id="Path_164" data-name="Path 164" d="M377.82,221.28H396.6L407.12,245.2H387.675Z" transform="translate(-231.235 -135.817)" fill="#8dc5e0" fill-rule="evenodd"/>
    <path id="Path_165" data-name="Path 165" d="M539.54,239.49h15.472v16.858H539.54Z" transform="translate(-330.211 -146.962)" fill="#8dc5e0" fill-rule="evenodd"/>
    <path id="Path_166" data-name="Path 166" d="M568.79,254.912a3.992,3.992,0,1,1,3.992,3.992A3.992,3.992,0,0,1,568.79,254.912Z" transform="translate(-348.113 -153.957)" fill="none" stroke="#8dc5e0" stroke-linecap="round" stroke-linejoin="round" stroke-width="2"/>
    <path id="Path_167" data-name="Path 167" d="M539.54,246.89h15.341" transform="translate(-330.211 -151.491)" fill="none" stroke="#aadaf1" stroke-linecap="round" stroke-linejoin="round" stroke-width="2"/>
    <path id="Path_168" data-name="Path 168" d="M14.085,1h94.507a9.6,9.6,0,0,1,9.6,9.6V58.735a9.6,9.6,0,0,1-9.6,9.6H14.085a9.6,9.6,0,0,1-9.595-9.6V10.6A9.6,9.6,0,0,1,14.085,1Z" transform="translate(-2.748 -1)" fill="#fff" fill-rule="evenodd" opacity="0.25"/>
  </g>
</svg>
