<?xml version="1.0" encoding="utf-8"?>
<!-- Generator: Adobe Illustrator 19.0.0, SVG Export Plug-In . SVG Version: 6.00 Build 0)  -->
<svg version="1.1" id="Layer_1" xmlns="http://www.w3.org/2000/svg" xmlns:xlink="http://www.w3.org/1999/xlink" x="0px" y="0px"
	 viewBox="-49 141 512 512" style="enable-background:new -49 141 512 512;" xml:space="preserve">
<style type="text/css">
	.st0{fill:#FFFFFF;}
</style>
<g>
	<path class="st0" d="M319,653c-16.5,0-32.9-2.9-48.9-8.7c-70.6-25.6-136.1-67.4-189.5-120.8S-14.6,404.6-40.3,334
		c-8.2-22.7-10.7-46.1-7.2-69.6c3.2-22,11.8-43.4,24.7-61.8c13-18.5,30.2-33.9,50-44.5c21-11.3,44-17.1,68.3-17.1
		c7.5,0,14.1,5.3,15.6,12.6l25.1,117.2c1.1,5.3-0.5,10.8-4.3,14.7l-42.9,42.9c40.5,80.5,106.2,146.2,186.6,186.6l42.9-42.9
		c3.8-3.8,9.4-5.5,14.7-4.3l117.2,25.1c7.4,1.6,12.6,8.1,12.6,15.6c0,24.3-5.7,47.2-17.1,68.3c-10.6,19.7-26,37-44.5,50
		c-18.4,12.9-39.8,21.4-61.8,24.7C332.7,652.5,325.8,653,319,653L319,653z M82.6,173.7c-32,3.5-60.4,20.3-79.2,47.2
		c-21.2,30.3-26.1,67.5-13.6,102.1C39.1,458.8,145.2,564.9,281,614.2c34.6,12.6,71.9,7.6,102.1-13.6c26.9-18.9,43.7-47.3,47.2-79.2
		L335,500.9l-44.8,44.8c-4.8,4.8-12,6-18.1,3.2c-95.2-44.7-172.2-121.8-217-217c-2.9-6.1-1.6-13.3,3.2-18.1l44.8-44.8L82.6,173.7z"
		/>
	<path class="st0" d="M447,413c-8.8,0-16-7.2-16-16c0-123.5-100.5-224-224-224c-8.8,0-16-7.2-16-16s7.2-16,16-16
		c68.4,0,132.7,26.6,181,75s75,112.6,75,181C463,405.8,455.8,413,447,413L447,413z"/>
	<path class="st0" d="M383,413c-8.8,0-16-7.2-16-16c0-88.2-71.8-160-160-160c-8.8,0-16-7.2-16-16s7.2-16,16-16
		c105.9,0,192,86.1,192,192C399,405.8,391.8,413,383,413z"/>
	<path class="st0" d="M319,413c-8.8,0-16-7.2-16-16c0-52.9-43.1-96-96-96c-8.8,0-16-7.2-16-16c0-8.8,7.2-16,16-16
		c70.6,0,128,57.4,128,128C335,405.8,327.8,413,319,413z"/>
</g>
</svg>
