<svg xmlns="http://www.w3.org/2000/svg" width="785.374" height="567.5" viewBox="0 0 785.374 567.5">
  <g id="wfh_9" transform="translate(-228.77 -200.25)">
    <rect id="Rectangle_9" data-name="Rectangle 9" width="290.3" height="290.3" rx="29.33" transform="translate(241.454 345.172)" fill="#f5ebdd"/>
    <circle id="Ellipse_2" data-name="Ellipse 2" cx="7.007" cy="7.007" r="7.007" transform="translate(470.521 322.476)" fill="#a15842"/>
    <rect id="Rectangle_11" data-name="Rectangle 11" width="290.3" height="290.3" rx="29.33" transform="translate(638.526 203.02)" fill="#f5ebdd"/>
    <path id="Path_3" data-name="Path 3" d="M617.391,991.89h0a7.893,7.893,0,0,1-7.838-6.924l-5.844-49.1h27.363l-5.844,49.1A7.886,7.886,0,0,1,617.391,991.89Z" transform="translate(-115.34 -226.293)" fill="#30242a"/>
    <path id="Path_4" data-name="Path 4" d="M1060.764,991.89h0a7.879,7.879,0,0,1-7.831-6.924l-5.844-49.1h27.356l-5.844,49.1A7.886,7.886,0,0,1,1060.764,991.89Z" transform="translate(-251.733 -226.293)" fill="#30242a"/>
    <path id="Path_5" data-name="Path 5" d="M366.706,642.81H489.541V846.369H310.7V698.81a56.005,56.005,0,0,1,56-56Z" transform="translate(-25.203 -136.141)" fill="#ffb7d5"/>
    <path id="Path_6" data-name="Path 6" d="M565.263,495.337H988.472a56.007,56.007,0,0,1,56.007,56.006V800.98H509.27V551.336a56.006,56.006,0,0,1,56.006-56.006Z" transform="translate(-86.288 -90.773)" fill="#ffb7d5"/>
    <line id="Line_6" data-name="Line 6" y2="173.545" transform="translate(422.968 536.663)" fill="none" stroke="#a15842" stroke-linecap="round" stroke-miterlimit="10" stroke-width="4"/>
    <path id="Path_7" data-name="Path 7" d="M565.263,760.4H988.472a56.007,56.007,0,0,1,56.007,56.007v66.122H509.27V816.407A56.007,56.007,0,0,1,565.263,760.4Z" transform="translate(-86.288 -172.314)" fill="#ffb7d5"/>
    <path id="Path_8" data-name="Path 8" d="M823.989,760.4H563.225a54.006,54.006,0,0,0-54.005,54.005v68.144" transform="translate(-86.272 -172.314)" fill="none" stroke="#a15842" stroke-linecap="round" stroke-miterlimit="10" stroke-width="4"/>
    <line id="Line_7" data-name="Line 7" y2="121.27" transform="translate(778.006 588.937)" fill="none" stroke="#a15842" stroke-miterlimit="10" stroke-width="4"/>
    <line id="Line_8" data-name="Line 8" x1="124.87" transform="translate(833.32 505.333)" fill="none" stroke="#a15842" stroke-miterlimit="10" stroke-width="4"/>
    <path id="Path_9" data-name="Path 9" d="M434.74,584.2c16.015,2,21.007-4.8,23.354-10.677,2.666-6.668.949-12.4-1.129-19.85,0,0,5.29-2.88,4.466-6.183-.692-2.666-6.709-2.963-6.709-2.963q-.353-1.786-.63-3.7a77.013,77.013,0,0,0-3.337-14.685,26.147,26.147,0,0,1-12.677,0,39.929,39.929,0,0,1-14.014,18.694s-14.685-16.015-24.025-4c-7.616,9.8,3.337,22.018,10.676,23.354-4.362,9.2-16.1,14.54-22.2,16.769.374,2.894.727,5.581,1.039,7.921h45.7Z" transform="translate(-49.139 -100.251)" fill="#eaa58b"/>
    <path id="Path_10" data-name="Path 10" d="M662.992,653.76a259.943,259.943,0,0,0,5.9-26.047l-16.015-43.378s6.674-18,.692-20.688-19.38,14.7-24.718,28.7c-2.306,6.051-8.606,19.961-15.011,33.8Z" transform="translate(-118.456 -111.703)" fill="#eaa58b"/>
    <path id="Path_11" data-name="Path 11" d="M513.347,678.845s-38.7-32.7-55.46-44.721-35.962-10-35.962-10l-.838-7.346h-45.7c.692,5.214,1.142,8.676,1.142,8.676L342.51,746.919l101.426-8.011-2.666-37.388s54.7,45.7,86.09,41.377c28.311-3.919,44.4-44.8,52.157-72.7l-49.159-27.612C521.961,660.767,513.347,678.845,513.347,678.845Z" transform="translate(-34.989 -128.134)" fill="#5bc0be"/>
    <path id="Path_12" data-name="Path 12" d="M408.572,553.129c-7.339-1.336-18.3-13.557-10.676-23.354,9.34-12.013,24.026,4,24.026,4a39.929,39.929,0,0,0,14.014-18.694,26.147,26.147,0,0,0,12.677,0s10.012-3.337,9.34-11.341c-.893-10.746-17.351-6.01-17.351-6.01s-18-13.349-37.388-4.674c-20.661,9.3-22.668,28.041-21.353,40.719.762,7.277,2.846,23.541,4.487,36.121C392.474,567.662,404.21,562.33,408.572,553.129Z" transform="translate(-46.996 -89.173)" fill="#30242a"/>
    <path id="Path_13" data-name="Path 13" d="M677.874,648.173c-3.053,1.26-5.733,1.627-6.924.942-2.991-1.7-3.462-5.269.09-10.282,0,0-8.44,3.289-11.043-.99s1.309-8.219,1.309-8.219-5.975,1.648-7.436-3.67,3.462-8.1,3.462-8.1a5.51,5.51,0,0,1-3.462-4.764c-.132-5.1,8.184-9.243,10.58-10.33" transform="translate(-130.687 -123.821)" fill="none" stroke="#a15842" stroke-linecap="round" stroke-miterlimit="10" stroke-width="8"/>
    <line id="Line_9" data-name="Line 9" x1="2.472" y1="28.865" transform="translate(405.285 544.376)" fill="none" stroke="#1c2541" stroke-linecap="round" stroke-miterlimit="10" stroke-width="4"/>
    <path id="Path_14" data-name="Path 14" d="M449.448,609.91a42.236,42.236,0,0,1-11.078-4.21" transform="translate(-64.478 -124.725)" fill="none" stroke="#a15842" stroke-linecap="round" stroke-miterlimit="10" stroke-width="4"/>
    <line id="Line_10" data-name="Line 10" y1="45.732" x2="17.199" transform="translate(311.855 564.039)" fill="none" stroke="#1c2541" stroke-linecap="round" stroke-miterlimit="10" stroke-width="4"/>
    <path id="Path_15" data-name="Path 15" d="M476.444,574.919c-1.1.692-5.241,1.219-6.924-1.959" transform="translate(-74.06 -114.654)" fill="none" stroke="#a15842" stroke-linecap="round" stroke-miterlimit="10" stroke-width="4"/>
    <circle id="Ellipse_3" data-name="Ellipse 3" cx="2.001" cy="2.001" r="2.001" transform="translate(394.276 441.267)" fill="#a15842"/>
    <line id="Line_11" data-name="Line 11" x2="7.339" y2="4.002" transform="translate(359.574 449.278)" fill="none" stroke="#a15842" stroke-linecap="round" stroke-miterlimit="10" stroke-width="4"/>
    <path id="Path_16" data-name="Path 16" d="M675.294,946.873l51.118-15.128c-3.9-13.474-11.355-39.016-16.153-53.895L646.47,904.479a292.19,292.19,0,0,0,28.824,42.394Z" transform="translate(-128.494 -208.444)" fill="#eaa58b"/>
    <path id="Path_17" data-name="Path 17" d="M447.57,835.839l18.507,8.7-17-10.275C448.089,835.285,447.57,835.839,447.57,835.839Z" transform="translate(-67.308 -195.035)" fill="none"/>
    <path id="Path_18" data-name="Path 18" d="M551.52,885.37l16.119,7.568L571,889.864Z" transform="translate(-99.285 -210.758)" fill="none"/>
    <path id="Path_19" data-name="Path 19" d="M688.27,971.958a88.625,88.625,0,0,0-2.77,17.358h90.432a20.274,20.274,0,0,0-8.752-9.873l-26.193-14.831s-1-3.462-2.569-8.932L687.3,970.815C687.923,971.563,688.27,971.958,688.27,971.958Z" transform="translate(-140.5 -232.387)" fill="#3a506b"/>
    <path id="Path_20" data-name="Path 20" d="M685.537,1012.929h92.086l-.284-2.853a20.177,20.177,0,0,0-1.475-5.816H685.434A53.807,53.807,0,0,0,685.537,1012.929Z" transform="translate(-140.441 -247.331)" fill="#1c2541"/>
    <path id="Path_21" data-name="Path 21" d="M567.694,810.765a208.114,208.114,0,0,0,18.258,42.547l63.789-26.629c-.692-2.236-1.385-4.23-1.966-5.913C627.813,763.088,615.745,716.7,586.381,712c-46.216-7.353-124.836,72.243-136.641,84.47l17,10.31L520.21,831.89l19.477,4.494Z" transform="translate(-67.975 -157.277)" fill="#a15842"/>
    <path id="Path_22" data-name="Path 22" d="M617.015,844.033A108.7,108.7,0,0,1,614.8,821.6" transform="translate(-118.75 -191.141)" fill="none" stroke="#30242a" stroke-linecap="round" stroke-miterlimit="10" stroke-width="4"/>
    <path id="Path_23" data-name="Path 23" d="M904.063,626.414s-63.955,16.873-92.086,32.7c-32.036,18-34.037,42.041-54.054,102.77-6.446,19.546-11,35.249-15.232,47.587l55.141,26.033.1-.208s27-3.967,29.364-37.388c1.779-24.926,2.631-43.419,11.341-62.065L987.46,626.4Z" transform="translate(-158.093 -131.093)" fill="#30242a"/>
    <path id="Path_24" data-name="Path 24" d="M686.215,927.471c-19.283,2.922-27.328,6.675-30.465,15.419l36.426,16.956s19.532-5.539,30.049-2.832v.035a117.2,117.2,0,0,1,20.543,6.875,306.831,306.831,0,0,0,28.387-47.082L716.015,890.81C708.108,913.9,701.516,925.152,686.215,927.471Z" transform="translate(-131.348 -212.431)" fill="#5bc0be"/>
    <path id="Path_25" data-name="Path 25" d="M739.09,999.192l17.766,8.267a158.072,158.072,0,0,0,11.507-14.1,117.2,117.2,0,0,0-20.543-6.875Z" transform="translate(-156.985 -241.861)" fill="#30242a"/>
    <line id="Line_12" data-name="Line 12" x2="12.366" y2="5.407" transform="translate(572.986 700.653)" fill="none" stroke="#f5ebdd" stroke-linecap="round" stroke-miterlimit="10" stroke-width="4"/>
    <line id="Line_13" data-name="Line 13" x2="12.366" y2="5.414" transform="translate(565.958 709.231)" fill="none" stroke="#f5ebdd" stroke-linecap="round" stroke-miterlimit="10" stroke-width="4"/>
    <circle id="Ellipse_4" data-name="Ellipse 4" cx="7.007" cy="7.007" r="7.007" transform="translate(803.693 332.82)" fill="#ffbe21"/>
    <circle id="Ellipse_5" data-name="Ellipse 5" cx="28.027" cy="28.027" r="28.027" transform="translate(807.37 239.729)" fill="#30242a"/>
    <path id="Path_26" data-name="Path 26" d="M1067.422,312.033c1.717.789-12.677-33.373-20.017-28.034C1040.468,289.025,1058.719,308.058,1067.422,312.033Z" transform="translate(-251.356 -25.589)" fill="#3ec1f3"/>
    <path id="Path_27" data-name="Path 27" d="M1078.084,318.989c1.572,1.876,38.282-10.967,33.234-18.383C1106.4,293.482,1076.519,317.085,1078.084,318.989Z" transform="translate(-261.249 -30.461)" fill="#3ec1f3"/>
    <path id="Path_28" data-name="Path 28" d="M1177.21,520.72l3.213-.5v-.942A27.605,27.605,0,0,1,1177.21,520.72Z" transform="translate(-291.761 -98.141)" fill="#30242a"/>
    <path id="Path_29" data-name="Path 29" d="M1035.015,461.836c31.24.568,47.006-31.24,51.008-40.733-1.385-.256-2.77-.478-4.293-.644-18-2-21.353-2.666-27.363-10.676s-6.675-24.026-6.675-24.026,15.565-3.462,13.349-16.015c-2-11.348-15.35-11.348-22.689-3.337,0,0-11.348-2.673-22.025-14.685,0,0-7.81,1.835-13.155.942-1.385,8.738-1.3,18.514-2.88,26.421-2.673,13.349-.692,22.025,7.339,26.7s17.351,1.329,17.351,1.329l-2,12.013a135.621,135.621,0,0,0-21.367,4.4C1003.547,438.607,1010.491,461.393,1035.015,461.836Z" transform="translate(-236.992 -46.595)" fill="#a15842"/>
    <path id="Path_30" data-name="Path 30" d="M1112.406,625.325l3.635-2.465-6.3,2.465Z" transform="translate(-271.005 -130.004)" fill="#a15842"/>
    <path id="Path_31" data-name="Path 31" d="M874.184,480.752s-34.986-47.774-43.378-57.4c-9.347-10.677-22.025-22.018-26.026-18s7.339,17.351,7.339,17.351l-2,43.377s22.987,61.989,48.051,70.076c12.532,4.043,36.336-6.619,53.154-15.648L885.31,473.427C878.7,477.761,874.184,480.752,874.184,480.752Z" transform="translate(-176.93 -62.839)" fill="#a15842"/>
    <path id="Path_32" data-name="Path 32" d="M1098.539,500s-2.673-14.678-6.01-22.689c-4.992-11.992-13.231-22.156-30.409-25.383-4,9.492-19.767,41.3-51.008,40.733-24.524-.443-31.469-23.229-33.38-38.309a49.024,49.024,0,0,0-6,2.271c-7.041,3.289-34.563,21.111-50.267,31.386l25.985,47.054c10.933-5.864,18.916-11.078,18.916-11.078L959.031,572.7h92.779l6.3-2.465,43.62-29.592A274.871,274.871,0,0,0,1098.539,500Z" transform="translate(-213.089 -77.422)" fill="#1c2541"/>
    <path id="Path_33" data-name="Path 33" d="M1143.58,423.755c-4.784-22.717-29.364-22.025-29.364-22.025a33.8,33.8,0,0,0-8.676-30.7c-13.349-14.014-32.036-8.011-32.036-8.011.692-8,2-28.692-15.35-41.37s-39.369-6.01-47.379,4c-3.261,4.078-4.847,9.6-5.8,15.62,5.324.893,13.155-.942,13.155-.942,10.676,12.013,22.025,14.685,22.025,14.685,7.339-8.011,20.688-8.011,22.689,3.337,2.216,12.553-13.349,16.015-13.349,16.015s.692,16.015,6.675,24.026,9.347,8.675,27.363,10.676c1.5.166,2.922.388,4.293.644,17.178,3.22,25.417,13.391,30.409,25.383,3.337,8.011,6.01,22.689,6.01,22.689a27.59,27.59,0,0,0,3.178-1.44C1133.894,452.98,1147.707,443.349,1143.58,423.755Z" transform="translate(-238.779 -35.206)" fill="#30242a"/>
    <line id="Line_14" data-name="Line 14" y1="3.33" x2="5.338" transform="translate(809.371 324.483)" fill="none" stroke="#30242a" stroke-linecap="round" stroke-miterlimit="10" stroke-width="4"/>
    <path id="Path_34" data-name="Path 34" d="M1018,406.249c1.108.692,5.241,1.219,6.924-1.959" transform="translate(-242.784 -62.767)" fill="none" stroke="#30242a" stroke-linecap="round" stroke-miterlimit="10" stroke-width="4"/>
    <circle id="Ellipse_6" data-name="Ellipse 6" cx="2.001" cy="2.001" r="2.001" transform="translate(784.099 324.463)" fill="#30242a"/>
    <circle id="Ellipse_7" data-name="Ellipse 7" cx="2.001" cy="2.001" r="2.001" transform="translate(768.659 321.811)" fill="#30242a"/>
    <path id="Path_35" data-name="Path 35" d="M1018.485,386.42s-1.821,4.563-1.385,5.477a3.414,3.414,0,0,0,1.385,1.385" transform="translate(-242.487 -57.27)" fill="none" stroke="#30242a" stroke-linecap="round" stroke-miterlimit="10" stroke-width="4"/>
    <path id="Path_36" data-name="Path 36" d="M819.976,485.276a5.124,5.124,0,0,0,3.012-1.011c2.361-2.361,1.883-5.816-2.728-9.583,0,0,8.738.907,10.067-3.767s-3.33-7.339-3.33-7.339,6,0,6-5.338-5.338-6.675-5.338-6.675a5.324,5.324,0,0,0,2-5.338c-1.336-5.338-12.677-6.675-12.677-6.675l-1.565-1.911" transform="translate(-180.466 -73.026)" fill="none" stroke="#30242a" stroke-linecap="round" stroke-linejoin="round" stroke-width="8"/>
    <path id="Path_37" data-name="Path 37" d="M1037,431.893a77.229,77.229,0,0,0,8.225-3.843" transform="translate(-248.629 -70.076)" fill="none" stroke="#30242a" stroke-linecap="round" stroke-miterlimit="10" stroke-width="4"/>
    <line id="Line_15" data-name="Line 15" x2="7.014" y2="9.493" transform="translate(698.916 417.761)" fill="none" stroke="#30242a" stroke-linecap="round" stroke-miterlimit="10" stroke-width="4"/>
    <line id="Line_16" data-name="Line 16" x1="3.407" y2="21.381" transform="translate(752.16 424.574)" fill="none" stroke="#170c3f" stroke-linecap="round" stroke-miterlimit="10" stroke-width="4"/>
    <line id="Line_17" data-name="Line 17" x1="0.332" y1="34.363" transform="translate(837.731 433.595)" fill="none" stroke="#14132e" stroke-linecap="round" stroke-miterlimit="10" stroke-width="4"/>
    <path id="Path_38" data-name="Path 38" d="M1162.5,441.75a61.342,61.342,0,0,1-3.857,10.483" transform="translate(-286.048 -74.291)" fill="none" stroke="#000" stroke-linecap="round" stroke-linejoin="round" stroke-width="4"/>
    <line id="Line_18" data-name="Line 18" x1="1.89" y2="9.915" transform="translate(834.061 328.582)" fill="none" stroke="#000" stroke-linecap="round" stroke-linejoin="round" stroke-width="4"/>
    <path id="Path_39" data-name="Path 39" d="M995.762,627.387s-57.4,18-89.428,33.366c-31.849,15.232-28.027,50.717-22.025,112.782,2.126,21.941,4.611,39.119,5.871,52.725h60.929c3.13-1.745,21.6-13.605,10.586-46.05-8.045-23.686-14.99-39.376-14.99-59.953h50.959a55.7,55.7,0,0,0,55.674-54.1l1.115-38.771Z" transform="translate(-200.405 -131.394)" fill="#30242a"/>
    <path id="Path_40" data-name="Path 40" d="M868.417,958.512c-16.229,10.815-21.928,17.614-21.083,26.871l40.158-.055s15.35-13.287,26.026-15.288a113.855,113.855,0,0,1,21.464-2,297.086,297.086,0,0,0,5.539-53.161l.443-.229H880.035C882.161,937.485,880.811,950.238,868.417,958.512Z" transform="translate(-190.259 -219.765)" fill="#5bc0be"/>
    <path id="Path_41" data-name="Path 41" d="M939.33,1008.989h19.6a139.4,139.4,0,0,0,4.431-17.219,113.865,113.865,0,0,0-21.464,2Z" transform="translate(-218.584 -243.489)" fill="#30242a"/>
    <line id="Line_19" data-name="Line 19" x1="15.731" transform="translate(729.955 590.087)" fill="none" stroke="#000" stroke-linecap="round" stroke-linejoin="round" stroke-width="4"/>
    <line id="Line_20" data-name="Line 20" x2="15.045" transform="translate(688.551 721.223)" fill="none" stroke="#f5ebdd" stroke-linecap="round" stroke-miterlimit="10" stroke-width="4"/>
    <line id="Line_21" data-name="Line 21" x2="15.045" transform="translate(685.207 731.9)" fill="none" stroke="#f5ebdd" stroke-linecap="round" stroke-miterlimit="10" stroke-width="4"/>
    <circle id="Ellipse_8" data-name="Ellipse 8" cx="29.696" cy="29.696" r="29.696" transform="translate(452.339 556.049)" fill="#fff"/>
    <rect id="Rectangle_12" data-name="Rectangle 12" width="16.686" height="26.691" rx="8.343" transform="translate(473.692 568.395)" fill="#1c2541"/>
    <line id="Line_22" data-name="Line 22" y2="9.347" transform="translate(482.035 592.42)" fill="none" stroke="#1c2541" stroke-linecap="round" stroke-miterlimit="10" stroke-width="4"/>
    <line id="Line_23" data-name="Line 23" x2="9.562" transform="translate(477.251 601.767)" fill="none" stroke="#1c2541" stroke-linecap="round" stroke-miterlimit="10" stroke-width="4"/>
    <circle id="Ellipse_9" data-name="Ellipse 9" cx="11.009" cy="11.009" r="11.009" transform="translate(261.471 365.188)" fill="#fff"/>
    <circle id="Ellipse_10" data-name="Ellipse 10" cx="11.009" cy="11.009" r="11.009" transform="translate(294.844 365.188)" fill="#fff"/>
    <circle id="Ellipse_11" data-name="Ellipse 11" cx="11.009" cy="11.009" r="11.009" transform="translate(328.209 365.188)" fill="#fff"/>
    <path id="Path_42" data-name="Path 42" d="M515.825,408.329a20.3,20.3,0,0,1,20.3,20.3V678.322a20.3,20.3,0,0,1-20.3,20.3H266.16a20.3,20.3,0,0,1-20.3-20.3V428.63a20.3,20.3,0,0,1,20.3-20.3H515.825m0-2.77H266.16a23.1,23.1,0,0,0-23.07,23.07V678.322a23.1,23.1,0,0,0,23.07,23.07H515.825a23.1,23.1,0,0,0,23.07-23.07V428.63A23.1,23.1,0,0,0,515.825,405.56Z" transform="translate(-4.405 -63.158)" fill="#f5ebdd"/>
    <path id="Path_43" data-name="Path 43" d="M1079.972,642.81h122.849V846.369H1024V698.81a56,56,0,0,1,55.965-56Z" transform="translate(-244.63 -136.141)" fill="#ffb7d5"/>
    <path id="Path_44" data-name="Path 44" d="M1228.609,904.572a24.025,24.025,0,0,1,45.378,0,24.039,24.039,0,0,1,21.367-16.084,59.951,59.951,0,0,0-7.54-10.573l-8.724-9.769a19.878,19.878,0,0,1-2.659-22.661l7.408-13.765h0c-2.077,2.077-14.1,13.349-32.341,13.349s-30.257-11.251-32.334-13.349h0l7.415,13.765a19.892,19.892,0,0,1-2.673,22.661l-8.724,9.769a59.836,59.836,0,0,0-7.554,10.593A24.026,24.026,0,0,1,1228.609,904.572Z" transform="translate(-301.119 -194.254)" fill="#1c2541"/>
    <path id="Path_45" data-name="Path 45" d="M1293.247,957a24.04,24.04,0,0,0-22.689,16.132,24.019,24.019,0,0,0-45.378,0,24.032,24.032,0,0,0-28.7-15.371,59.772,59.772,0,0,0,17.185,40.615H1282.4a59.744,59.744,0,0,0,17.178-40.525A24.164,24.164,0,0,0,1293.247,957Z" transform="translate(-297.689 -232.79)" fill="#1c2541"/>
    <path id="Path_46" data-name="Path 46" d="M1256.574,845.069c18.244,0,30.257-11.251,32.341-13.349H1224.24C1226.317,833.818,1238.337,845.069,1256.574,845.069Z" transform="translate(-306.228 -194.254)" fill="#30242a"/>
    <path id="Path_47" data-name="Path 47" d="M1225.187,959.811a24.019,24.019,0,0,1,45.378,0,24.019,24.019,0,0,1,29.025-15.281,59.787,59.787,0,0,0-7.658-30.839,24.04,24.04,0,0,0-21.367,16.084,24.025,24.025,0,0,0-45.378,0,24.026,24.026,0,0,0-21.048-16.063,59.876,59.876,0,0,0-7.616,30.728,24.032,24.032,0,0,1,28.7,15.371Z" transform="translate(-297.696 -219.458)" fill="#3ec1f3"/>
    <path id="Path_48" data-name="Path 48" d="M1277.86,822.737c1.316-8.073,7.318-40.1,22.405-57.467" transform="translate(-322.723 -173.812)" fill="none" stroke="#30242a" stroke-linecap="round" stroke-miterlimit="10" stroke-width="4"/>
    <path id="Path_49" data-name="Path 49" d="M1263.348,812.571c-.1-9.167-1.039-54.213-10-81.091" transform="translate(-315.183 -163.418)" fill="none" stroke="#30242a" stroke-linecap="round" stroke-miterlimit="10" stroke-width="4"/>
    <ellipse id="Ellipse_12" data-name="Ellipse 12" cx="26.172" cy="5.885" rx="26.172" ry="5.885" transform="translate(959.158 617.361) rotate(-23.75)" fill="#30242a"/>
    <ellipse id="Ellipse_13" data-name="Ellipse 13" cx="14.478" cy="5.054" rx="14.478" ry="5.054" transform="translate(971.105 541.382) rotate(-53.51)" fill="#30242a"/>
    <ellipse id="Ellipse_14" data-name="Ellipse 14" cx="31.579" cy="5.581" rx="31.579" ry="5.581" transform="translate(883.356 615.93) rotate(-8.6)" fill="#30242a"/>
    <path id="Path_50" data-name="Path 50" d="M1200.047,744.71v.048a11.673,11.673,0,0,1-9.527,21.214v.048c14.457,6.495,28.318,6.986,30.963,1.1S1214.5,751.2,1200.047,744.71Z" transform="translate(-295.855 -167.488)" fill="#ff7235"/>
    <path id="Path_51" data-name="Path 51" d="M1248.662,675.6c-3.081-.8-7.083,3.857-10,11.078-3.517-8.745-8.62-14.6-12.054-13.46s-4.057,8.869-1.676,18c-6.633-4.044-12.622-5.4-14.616-2.929-2.548,3.157,2.361,11.341,10.967,18.286a48.967,48.967,0,0,0,7.872,5.241,11.667,11.667,0,0,1,18.507-6.335,49.75,49.75,0,0,0,3.081-8.627C1253.508,686.123,1252.588,676.617,1248.662,675.6Z" transform="translate(-301.736 -145.452)" fill="#ff7235"/>
    <path id="Path_52" data-name="Path 52" d="M1344.638,735.394c-.948-3.033-7.014-3.967-14.671-2.645,5.539-7.616,7.838-15.032,5.054-17.351s-9.693,1.253-16.16,8.094c-.076-7.768-2.077-13.564-5.241-13.951-4.023-.492-8.378,8-9.693,18.978a49.1,49.1,0,0,0-.284,9.451,11.667,11.667,0,0,1,15.163,12.359,49.562,49.562,0,0,0,8.953-1.946C1338.275,745.081,1345.849,739.265,1344.638,735.394Z" transform="translate(-330.621 -156.663)" fill="#ff7235"/>
    <path id="Path_53" data-name="Path 53" d="M1314.67,752.508a11.66,11.66,0,0,0-11.03-2.146c.374,5.221,1.7,9.216,3.683,10.7,1.849,1.717,6.141,2.285,11.48,1.655a11.653,11.653,0,0,0-4.133-10.213Z" transform="translate(-330.653 -169.055)" fill="#30242a"/>
    <path id="Path_54" data-name="Path 54" d="M1245.481,716.848a11.646,11.646,0,0,0-7.651,8.232c4.625,2.444,8.717,3.462,11.03,2.534,2.437-.692,5.186-4,7.478-8.869a11.653,11.653,0,0,0-10.857-1.9Z" transform="translate(-310.409 -158.735)" fill="#30242a"/>
    <path id="Path_55" data-name="Path 55" d="M1201.326,764.313a5.671,5.671,0,0,1,4.653-10.3,11.666,11.666,0,0,0-5.961-9.257l-9.527,21.214a11.646,11.646,0,0,0,10.836-1.662Z" transform="translate(-295.846 -167.503)" fill="#f5ebdd"/>
    <path id="Path_56" data-name="Path 56" d="M1202.409,761.014a5.671,5.671,0,0,0,2.43,7.284,11.645,11.645,0,0,0,4.653-10.3,5.671,5.671,0,0,0-7.083,3.012Z" transform="translate(-299.359 -171.474)" fill="#1c2541"/>
    <circle id="Ellipse_15" data-name="Ellipse 15" cx="11.009" cy="11.009" r="11.009" transform="translate(658.55 223.043)" fill="#fff"/>
    <circle id="Ellipse_16" data-name="Ellipse 16" cx="11.009" cy="11.009" r="11.009" transform="translate(691.916 223.043)" fill="#fff"/>
    <circle id="Ellipse_17" data-name="Ellipse 17" cx="11.009" cy="11.009" r="11.009" transform="translate(725.281 223.043)" fill="#fff"/>
    <path id="Path_57" data-name="Path 57" d="M1089.342,203.02a20.308,20.308,0,0,1,20.307,20.307V473.019a20.307,20.307,0,0,1-20.307,20.3H839.657a20.307,20.307,0,0,1-20.307-20.3V223.327a20.307,20.307,0,0,1,20.307-20.307h249.685m0-2.77H839.657a23.1,23.1,0,0,0-23.077,23.077V473.019a23.1,23.1,0,0,0,23.077,23.07h249.685a23.1,23.1,0,0,0,23.077-23.07V223.327A23.1,23.1,0,0,0,1089.342,200.25Z" transform="translate(-180.823)" fill="#f5ebdd"/>
    <path id="Path_58" data-name="Path 58" d="M808.494,430.76s-14.678,0-16.679,6,2.666,10.683,2.666,10.683-8,4-2.666,11.341c0,0-4.009,6.675,2.666,10.676,0,0-4,4.674,2.673,9.347s16.015,5.338,18,3.337c2.361-2.361,1.883-5.816-2.728-9.583,0,0,8.738.907,10.067-3.767s-3.33-7.339-3.33-7.339,6,0,6-5.338-5.338-6.675-5.338-6.675a5.323,5.323,0,0,0,2-5.338c-.983-3.926-7.367-5.684-10.683-6.342a23.074,23.074,0,0,0-2.666-.332Z" transform="translate(-172.64 -70.91)" fill="#a15842"/>
    <path id="Path_59" data-name="Path 59" d="M797.59,487.47a96.368,96.368,0,0,0,20.363,3.829" transform="translate(-174.981 -88.355)" fill="none" stroke="#30242a" stroke-linecap="round" stroke-miterlimit="10" stroke-width="4"/>
    <path id="Path_60" data-name="Path 60" d="M794,472a106.389,106.389,0,0,0,29.551,3.04" transform="translate(-173.877 -83.596)" fill="none" stroke="#30242a" stroke-linecap="round" stroke-miterlimit="10" stroke-width="4"/>
    <path id="Path_61" data-name="Path 61" d="M797.05,456a81.934,81.934,0,0,0,27.986,1.786" transform="translate(-174.815 -78.674)" fill="none" stroke="#30242a" stroke-linecap="round" stroke-miterlimit="10" stroke-width="4"/>
    <path id="Path_62" data-name="Path 62" d="M1059.205,603.542s-54.054,14.021-72.741,28.034c-8.44,6.328-18.694,18-22.018,23.354S947.1,680.292,953.77,680.956s14.014-11.341,14.014-11.341-4.016,14.678-3.323,19.352S971.8,692.3,971.8,692.3c5.338,5.338,10.012-1.336,10.012-1.336,9.34,6,19.387-26.027,19.387-26.027a63,63,0,0,0,15.018-10.344s59.725-.332,78.412-17.019c13.266-11.84,16.541-35.194,16.534-57.419h-51.928Z" transform="translate(-222.479 -116.869)" fill="#a15842"/>
    <line id="Line_24" data-name="Line 24" y1="3.046" x2="12.186" transform="translate(837.225 482.006)" fill="none" stroke="#30242a" stroke-linecap="round" stroke-miterlimit="10" stroke-width="4"/>
    <path id="Path_63" data-name="Path 63" d="M971,706.79c3.462-11.77,6.231-18.694,8.309-22.98" transform="translate(-228.326 -148.754)" fill="none" stroke="#30242a" stroke-linecap="round" stroke-miterlimit="10" stroke-width="4"/>
    <path id="Path_64" data-name="Path 64" d="M991.41,689.6c-6.01,12.947-9.693,28.568-11.41,36.281" transform="translate(-231.095 -150.535)" fill="none" stroke="#30242a" stroke-linecap="round" stroke-miterlimit="10" stroke-width="4"/>
    <path id="Path_65" data-name="Path 65" d="M1005.693,696.34c-3.926,9-7.492,22.544-9.693,30.922" transform="translate(-236.017 -152.608)" fill="none" stroke="#30242a" stroke-linecap="round" stroke-miterlimit="10" stroke-width="4"/>
    <path id="Path_66" data-name="Path 66" d="M954.49,647.67c-16.264,5.788-34.418,12.74-48.155,19.324-24.621,11.77-27.924,35.664-25.383,74.555" transform="translate(-200.406 -137.636)" fill="none" stroke="#000" stroke-linecap="round" stroke-linejoin="round" stroke-width="4"/>
    <path id="Path_67" data-name="Path 67" d="M362.953,924.29A357.116,357.116,0,0,0,316.2,936.947l-26.269-11.639.055-.575L228.77,980.324l1.336,1.6a17.808,17.808,0,0,0,13.674,6.4H366.643Z" transform="translate(0 -222.73)" fill="#eaa58b"/>
    <path id="Path_68" data-name="Path 68" d="M345.091,907.581a350.636,350.636,0,0,1,46.756-12.657l3.69,64.038h87.69c23.707,0,44.485-16.617,48.9-39.909,2.943-15.544-1.655-32.189-18.175-43.509-26.573-18.209-83.418-42.041-98.1-46.715l-80.752,18.694c-15.35,16.686-12.013,44.042-12.013,44.042Z" transform="translate(-28.922 -193.365)" fill="#a15842"/>
    <path id="Path_69" data-name="Path 69" d="M422.86,923.077c18.154-3.51,38.434-6.55,66.821-5.228" transform="translate(-59.706 -220.652)" fill="none" stroke="#30242a" stroke-linecap="round" stroke-miterlimit="10" stroke-width="4"/>
    <path id="Path_70" data-name="Path 70" d="M459.21,827.83c12.844,4.092,57.973,22.849,86.852,39.673" transform="translate(-70.888 -193.057)" fill="none" stroke="#30242a" stroke-linecap="round" stroke-miterlimit="10" stroke-width="4"/>
    <path id="Path_71" data-name="Path 71" d="M306.072,925.63,238.71,986.76a17.731,17.731,0,0,0,8.149,1.98h49.034l23.333-51.381A49.9,49.9,0,0,0,306.072,925.63Z" transform="translate(-3.058 -223.143)" fill="#3a506b"/>
    <path id="Path_72" data-name="Path 72" d="M294.172,919.43l-65.4,59.4,1.336,1.6a17.73,17.73,0,0,0,5.539,4.424l67.368-61.13a44.483,44.483,0,0,0-8.842-4.293Z" transform="translate(0 -221.235)" fill="#1c2541"/>
    <line id="Line_25" data-name="Line 25" y2="11.826" transform="translate(279.154 753.924)" fill="none" stroke="#30242a" stroke-linecap="round" stroke-miterlimit="10" stroke-width="4"/>
    <line id="Line_26" data-name="Line 26" y2="11.826" transform="translate(268.478 753.924)" fill="none" stroke="#30242a" stroke-linecap="round" stroke-miterlimit="10" stroke-width="4"/>
    <path id="Path_73" data-name="Path 73" d="M392.05,627.447c2.077-.194,6.411-.547,10.746-.547" transform="translate(-50.228 -131.247)" fill="none" stroke="#1c2541" stroke-linecap="round" stroke-miterlimit="10" stroke-width="4"/>
    <path id="Path_74" data-name="Path 74" d="M665.085,592.928s13.017-4.313,16.617,1.115.263,11.355.263,11.355,9.063,1.793,5.761,10.559c0,0,5.809,5.539.27,11.355,0,0,5.262,3.552-.1,10.026s-14.471,9.693-17.012,8.253c-2.991-1.7-3.462-5.269.09-10.282,0,0-8.44,3.289-11.043-.99s1.309-8.219,1.309-8.219-5.975,1.648-7.436-3.67,3.462-8.1,3.462-8.1a5.51,5.51,0,0,1-3.462-4.764c-.132-5.1,8.821-9.548,11.217-10.628Z" transform="translate(-130.665 -120.296)" fill="#eaa58b"/>
    <path id="Path_75" data-name="Path 75" d="M656,621.6c5.137-.9,18.189-3.683,26.83-9.693" transform="translate(-131.425 -126.636)" fill="none" stroke="#a15842" stroke-linecap="round" stroke-miterlimit="10" stroke-width="4"/>
    <path id="Path_76" data-name="Path 76" d="M659,639.023A73.393,73.393,0,0,0,689.465,628" transform="translate(-132.348 -131.585)" fill="none" stroke="#a15842" stroke-linecap="round" stroke-miterlimit="10" stroke-width="4"/>
    <path id="Path_77" data-name="Path 77" d="M673,654.317c1.849-.651,13.91-4.978,21.228-9.617" transform="translate(-136.655 -136.722)" fill="none" stroke="#a15842" stroke-linecap="round" stroke-miterlimit="10" stroke-width="4"/>
    <path id="Path_78" data-name="Path 78" d="M363.593,735.029c-12.082,1.475-25.563,3.656-40.74,6.37l21.353-57.391,9.34-54.7s-30.693,3.337-44.707,19.387c-12.927,14.768-53.389,83.418-37.388,119.456s64.08,23.326,75.407,19.989c6.183-1.821,15.551-6.017,25.168-9.139Z" transform="translate(-11.995 -131.988)" fill="#5bc0be"/>
    <path id="Path_79" data-name="Path 79" d="M437.494,821.464c14.685,2,31.365,9.34,34.037,0,0,0,9-.228,6.162-8.786,0,0,4.514-.561,5.179-3.9,1.336-6.668-14.678-12.677-14.678-12.677s12.677,2,15.35-.692c3.4-3.406.09-8.828-20.619-13.848-15.038-3.642-33.234-3.42-56.775-.54l8.454,43.945C422.663,822.406,430.819,820.551,437.494,821.464Z" transform="translate(-54.566 -177.988)" fill="#eaa58b"/>
    <path id="Path_80" data-name="Path 80" d="M490.5,801.066c-7.111-2.728-20.612-7.263-30.4-8.856" transform="translate(-71.162 -182.1)" fill="none" stroke="#a15842" stroke-linecap="round" stroke-miterlimit="10" stroke-width="4"/>
    <path id="Path_81" data-name="Path 81" d="M493.527,821.4c-9.278-4.154-27.2-11.854-36.807-13.294" transform="translate(-70.122 -186.991)" fill="none" stroke="#a15842" stroke-linecap="round" stroke-miterlimit="10" stroke-width="4"/>
    <path id="Path_82" data-name="Path 82" d="M485.444,835.9c-7.152-3.628-21.464-10.441-31.614-12.373" transform="translate(-69.233 -191.734)" fill="none" stroke="#a15842" stroke-linecap="round" stroke-miterlimit="10" stroke-width="4"/>
    <path id="Path_83" data-name="Path 83" d="M380.328,783.44c-6.522.845-27.384,3.725-58.548,9.742" transform="translate(-28.612 -179.402)" fill="none" stroke="#1c2541" stroke-linecap="round" stroke-miterlimit="10" stroke-width="4"/>
    <circle id="Ellipse_18" data-name="Ellipse 18" cx="29.696" cy="29.696" r="29.696" transform="translate(849.411 413.904)" fill="#fff"/>
    <rect id="Rectangle_13" data-name="Rectangle 13" width="16.686" height="26.691" rx="8.343" transform="translate(870.764 426.249)" fill="#1c2541"/>
    <line id="Line_27" data-name="Line 27" y2="9.347" transform="translate(879.107 450.275)" fill="none" stroke="#1c2541" stroke-linecap="round" stroke-miterlimit="10" stroke-width="4"/>
    <line id="Line_28" data-name="Line 28" x2="9.569" transform="translate(874.323 459.622)" fill="none" stroke="#1c2541" stroke-linecap="round" stroke-miterlimit="10" stroke-width="4"/>
  </g>
</svg>
